<svg width="51" height="51" viewBox="0 0 51 51" fill="none" xmlns="http://www.w3.org/2000/svg">
    <g clip-path="url(#clip0_209_430)">
        <path d="M39.2877 50.9992C38.7586 50.9992 38.2263 50.8685 37.7434 50.6008L25.4994 43.8289L13.2546 50.6008C12.1836 51.1921 10.8696 51.1204 9.8735 50.4175C8.87741 49.7139 8.36661 48.5026 8.56264 47.2977L10.9381 32.746L0.907063 22.4599C0.0727353 21.6041 -0.213343 20.3554 0.16597 19.2222C0.546079 18.0891 1.52624 17.2643 2.70641 17.0834L16.4421 14.9853L22.6123 1.8408C23.1391 0.719601 24.2627 0.00719452 25.4986 0.00719452C26.7346 0.00719452 27.8582 0.720398 28.3849 1.8408L34.5551 14.9853L48.2908 17.0834C49.4702 17.2643 50.4512 18.0891 50.8313 19.2222C51.2114 20.3562 50.9245 21.6041 50.0902 22.4599L40.0599 32.746L42.4346 47.2977C42.6306 48.5026 42.1198 49.7139 41.1238 50.4175C40.5763 50.8032 39.9316 50.9992 39.2877 50.9992ZM25.4986 36.9989C26.0309 36.9989 26.5601 37.1328 27.043 37.3974L35.085 41.8431L33.5072 32.1858C33.3455 31.1865 33.6658 30.1721 34.3726 29.4461L41.1963 22.4504L31.9095 21.0311C30.8608 20.8726 29.9579 20.2 29.5061 19.2342L25.4994 10.6981L21.4919 19.2342C21.0409 20.2 20.138 20.8726 19.0886 21.0311L9.80178 22.4504L16.6254 29.4461C17.3323 30.1713 17.6526 31.1865 17.4908 32.1858L15.913 41.8431L23.9551 37.3974C24.4372 37.1328 24.9663 36.9989 25.4986 36.9989Z" fill="#101010"/>
        <path d="M25.4986 36.9989C26.0309 36.9989 26.56 37.1328 27.0429 37.3973L35.085 41.8431L33.5072 32.1858C33.3454 31.1865 33.6658 30.1721 34.3726 29.4461L41.1962 22.4504L31.9095 21.0311C30.8608 20.8725 29.9579 20.2 29.5061 19.2342L25.4994 10.698L21.4919 19.2342C21.0409 20.2 20.138 20.8725 19.0885 21.0311L9.80176 22.4504L16.6254 29.4461C17.3322 30.1713 17.6526 31.1865 17.4908 32.1858L15.913 41.8431L23.9551 37.3973C24.4372 37.1328 24.9663 36.9989 25.4986 36.9989Z" fill="#FCFF51"/>
    </g>
    <defs>
        <clipPath id="clip0_209_430">
            <rect width="51" height="51" fill="white"/>
        </clipPath>
    </defs>
</svg>
